<?xml version="1.0" standalone="no"?>
<svg xmlns:xlink="http://www.w3.org/1999/xlink" id="wave" style="transform:rotate(180deg); transition: 0.3s" viewBox="0 0 1440 490" version="1.1" xmlns="http://www.w3.org/2000/svg"><defs><linearGradient id="sw-gradient-0" x1="0" x2="0" y1="1" y2="0"><stop stop-color="rgba(243, 106, 62, 1)" offset="0%"/><stop stop-color="rgba(255, 179, 11, 1)" offset="100%"/></linearGradient></defs><path style="transform:translate(0, 0px); opacity:1" fill="url(#sw-gradient-0)" d="M0,245L80,204.2C160,163,320,82,480,98C640,114,800,229,960,269.5C1120,310,1280,278,1440,261.3C1600,245,1760,245,1920,269.5C2080,294,2240,343,2400,359.3C2560,376,2720,359,2880,343C3040,327,3200,310,3360,318.5C3520,327,3680,359,3840,359.3C4000,359,4160,327,4320,277.7C4480,229,4640,163,4800,114.3C4960,65,5120,33,5280,89.8C5440,147,5600,294,5760,359.3C5920,425,6080,408,6240,334.8C6400,261,6560,131,6720,122.5C6880,114,7040,229,7200,253.2C7360,278,7520,212,7680,212.3C7840,212,8000,278,8160,310.3C8320,343,8480,343,8640,318.5C8800,294,8960,245,9120,253.2C9280,261,9440,327,9600,310.3C9760,294,9920,196,10080,187.8C10240,180,10400,261,10560,294C10720,327,10880,310,11040,269.5C11200,229,11360,163,11440,130.7L11520,98L11520,490L11440,490C11360,490,11200,490,11040,490C10880,490,10720,490,10560,490C10400,490,10240,490,10080,490C9920,490,9760,490,9600,490C9440,490,9280,490,9120,490C8960,490,8800,490,8640,490C8480,490,8320,490,8160,490C8000,490,7840,490,7680,490C7520,490,7360,490,7200,490C7040,490,6880,490,6720,490C6560,490,6400,490,6240,490C6080,490,5920,490,5760,490C5600,490,5440,490,5280,490C5120,490,4960,490,4800,490C4640,490,4480,490,4320,490C4160,490,4000,490,3840,490C3680,490,3520,490,3360,490C3200,490,3040,490,2880,490C2720,490,2560,490,2400,490C2240,490,2080,490,1920,490C1760,490,1600,490,1440,490C1280,490,1120,490,960,490C800,490,640,490,480,490C320,490,160,490,80,490L0,490Z"/></svg>